<mxfile host="Electron" agent="Mozilla/5.0 (Windows NT 10.0; Win64; x64) AppleWebKit/537.36 (KHTML, like Gecko) draw.io/26.2.2 Chrome/134.0.6998.178 Electron/35.1.2 Safari/537.36" version="26.2.2">
  <diagram name="第 1 页" id="o-hqp_tq3Qc4abrZcXei">
    <mxGraphModel dx="910" dy="688" grid="1" gridSize="10" guides="1" tooltips="1" connect="1" arrows="1" fold="1" page="0" pageScale="1" pageWidth="827" pageHeight="1169" math="0" shadow="0">
      <root>
        <mxCell id="0" />
        <mxCell id="1" parent="0" />
        <mxCell id="xNTNGgyBb4YXp7xv-vXv-7" value="打包成数字资产" style="swimlane;whiteSpace=wrap;html=1;" vertex="1" parent="1">
          <mxGeometry x="390" y="370" width="210" height="420" as="geometry" />
        </mxCell>
        <mxCell id="xNTNGgyBb4YXp7xv-vXv-2" value="随机颜色" style="rounded=1;whiteSpace=wrap;html=1;strokeColor=#007FFF;" vertex="1" parent="xNTNGgyBb4YXp7xv-vXv-7">
          <mxGeometry x="45" y="330" width="120" height="60" as="geometry" />
        </mxCell>
        <mxCell id="xNTNGgyBb4YXp7xv-vXv-5" value="" style="edgeStyle=orthogonalEdgeStyle;rounded=0;orthogonalLoop=1;jettySize=auto;html=1;strokeColor=#007FFF;" edge="1" parent="xNTNGgyBb4YXp7xv-vXv-7" source="xNTNGgyBb4YXp7xv-vXv-3" target="xNTNGgyBb4YXp7xv-vXv-4">
          <mxGeometry relative="1" as="geometry" />
        </mxCell>
        <mxCell id="xNTNGgyBb4YXp7xv-vXv-3" value="缩放节点" style="rounded=1;whiteSpace=wrap;html=1;strokeColor=#007FFF;" vertex="1" parent="xNTNGgyBb4YXp7xv-vXv-7">
          <mxGeometry x="45" y="90" width="120" height="60" as="geometry" />
        </mxCell>
        <mxCell id="xNTNGgyBb4YXp7xv-vXv-6" value="" style="edgeStyle=orthogonalEdgeStyle;rounded=0;orthogonalLoop=1;jettySize=auto;html=1;strokeColor=#007FFF;" edge="1" parent="xNTNGgyBb4YXp7xv-vXv-7" source="xNTNGgyBb4YXp7xv-vXv-4" target="xNTNGgyBb4YXp7xv-vXv-2">
          <mxGeometry relative="1" as="geometry" />
        </mxCell>
        <mxCell id="xNTNGgyBb4YXp7xv-vXv-4" value="复制节点" style="rounded=1;whiteSpace=wrap;html=1;strokeColor=#007FFF;" vertex="1" parent="xNTNGgyBb4YXp7xv-vXv-7">
          <mxGeometry x="45" y="210" width="120" height="60" as="geometry" />
        </mxCell>
        <mxCell id="xNTNGgyBb4YXp7xv-vXv-8" value="数字资产参数：将内部参数提到外部" style="swimlane;whiteSpace=wrap;html=1;" vertex="1" parent="1">
          <mxGeometry x="100" y="430" width="240" height="290" as="geometry" />
        </mxCell>
        <mxCell id="xNTNGgyBb4YXp7xv-vXv-9" value="缩放大小" style="rounded=0;whiteSpace=wrap;html=1;" vertex="1" parent="xNTNGgyBb4YXp7xv-vXv-8">
          <mxGeometry x="75" y="42.5" width="90" height="35" as="geometry" />
        </mxCell>
        <mxCell id="xNTNGgyBb4YXp7xv-vXv-14" value="复制数量" style="rounded=0;whiteSpace=wrap;html=1;" vertex="1" parent="xNTNGgyBb4YXp7xv-vXv-8">
          <mxGeometry x="75" y="127.5" width="90" height="35" as="geometry" />
        </mxCell>
        <mxCell id="xNTNGgyBb4YXp7xv-vXv-15" value="随机种子" style="rounded=0;whiteSpace=wrap;html=1;" vertex="1" parent="xNTNGgyBb4YXp7xv-vXv-8">
          <mxGeometry x="75" y="200" width="90" height="35" as="geometry" />
        </mxCell>
        <mxCell id="xNTNGgyBb4YXp7xv-vXv-12" style="edgeStyle=orthogonalEdgeStyle;rounded=0;orthogonalLoop=1;jettySize=auto;html=1;" edge="1" parent="1" source="xNTNGgyBb4YXp7xv-vXv-10" target="xNTNGgyBb4YXp7xv-vXv-11">
          <mxGeometry relative="1" as="geometry" />
        </mxCell>
        <mxCell id="xNTNGgyBb4YXp7xv-vXv-10" value="外部资产" style="ellipse;whiteSpace=wrap;html=1;aspect=fixed;" vertex="1" parent="1">
          <mxGeometry x="160" y="280" width="80" height="80" as="geometry" />
        </mxCell>
        <mxCell id="xNTNGgyBb4YXp7xv-vXv-13" value="传入到资产内部管道" style="edgeStyle=orthogonalEdgeStyle;rounded=0;orthogonalLoop=1;jettySize=auto;html=1;exitX=1;exitY=1;exitDx=0;exitDy=0;entryX=0.5;entryY=0;entryDx=0;entryDy=0;curved=1;" edge="1" parent="1" source="xNTNGgyBb4YXp7xv-vXv-11" target="xNTNGgyBb4YXp7xv-vXv-3">
          <mxGeometry x="0.1566" y="10" relative="1" as="geometry">
            <mxPoint as="offset" />
          </mxGeometry>
        </mxCell>
        <mxCell id="xNTNGgyBb4YXp7xv-vXv-11" value="数字资产输入接口" style="ellipse;whiteSpace=wrap;html=1;" vertex="1" parent="1">
          <mxGeometry x="435" y="280" width="120" height="80" as="geometry" />
        </mxCell>
        <mxCell id="xNTNGgyBb4YXp7xv-vXv-16" style="edgeStyle=orthogonalEdgeStyle;rounded=0;orthogonalLoop=1;jettySize=auto;html=1;exitX=0;exitY=0.5;exitDx=0;exitDy=0;entryX=1;entryY=0.5;entryDx=0;entryDy=0;curved=1;dashed=1;dashPattern=1 4;" edge="1" parent="1" source="xNTNGgyBb4YXp7xv-vXv-2" target="xNTNGgyBb4YXp7xv-vXv-15">
          <mxGeometry relative="1" as="geometry" />
        </mxCell>
        <mxCell id="xNTNGgyBb4YXp7xv-vXv-17" style="edgeStyle=orthogonalEdgeStyle;rounded=0;orthogonalLoop=1;jettySize=auto;html=1;exitX=0;exitY=0.5;exitDx=0;exitDy=0;entryX=1;entryY=0.5;entryDx=0;entryDy=0;curved=1;dashed=1;dashPattern=1 4;" edge="1" parent="1" source="xNTNGgyBb4YXp7xv-vXv-4" target="xNTNGgyBb4YXp7xv-vXv-14">
          <mxGeometry relative="1" as="geometry" />
        </mxCell>
        <mxCell id="xNTNGgyBb4YXp7xv-vXv-18" style="edgeStyle=orthogonalEdgeStyle;rounded=0;orthogonalLoop=1;jettySize=auto;html=1;exitX=0;exitY=0.5;exitDx=0;exitDy=0;entryX=1;entryY=0.5;entryDx=0;entryDy=0;curved=1;dashed=1;dashPattern=1 4;" edge="1" parent="1" source="xNTNGgyBb4YXp7xv-vXv-3" target="xNTNGgyBb4YXp7xv-vXv-9">
          <mxGeometry relative="1" as="geometry" />
        </mxCell>
        <mxCell id="xNTNGgyBb4YXp7xv-vXv-19" value="数字资产输出接口" style="ellipse;whiteSpace=wrap;html=1;" vertex="1" parent="1">
          <mxGeometry x="435" y="820" width="120" height="80" as="geometry" />
        </mxCell>
        <mxCell id="xNTNGgyBb4YXp7xv-vXv-20" value="" style="edgeStyle=orthogonalEdgeStyle;rounded=0;orthogonalLoop=1;jettySize=auto;html=1;" edge="1" parent="1" source="xNTNGgyBb4YXp7xv-vXv-2" target="xNTNGgyBb4YXp7xv-vXv-19">
          <mxGeometry relative="1" as="geometry" />
        </mxCell>
      </root>
    </mxGraphModel>
  </diagram>
</mxfile>
